<mxfile host="Electron" modified="2023-06-20T08:06:06.076Z" agent="Mozilla/5.0 (Windows NT 10.0; Win64; x64) AppleWebKit/537.36 (KHTML, like Gecko) draw.io/21.2.8 Chrome/112.0.5615.165 Electron/24.2.0 Safari/537.36" etag="XCxDLE0Xfw-MljWQi81g" version="21.2.8" type="device">
  <diagram name="Page-1" id="RZT6y81iK2znv2RWIz-j">
    <mxGraphModel dx="1480" dy="866" grid="0" gridSize="10" guides="1" tooltips="1" connect="1" arrows="1" fold="1" page="1" pageScale="1" pageWidth="827" pageHeight="1169" math="0" shadow="0">
      <root>
        <mxCell id="0" />
        <mxCell id="1" parent="0" />
        <mxCell id="cSXNjDyf7hBkQ2mtIfp5-1" value="Game" style="swimlane;fontStyle=1;align=center;verticalAlign=top;childLayout=stackLayout;horizontal=1;startSize=26;horizontalStack=0;resizeParent=1;resizeParentMax=0;resizeLast=0;collapsible=1;marginBottom=0;whiteSpace=wrap;html=1;" parent="1" vertex="1">
          <mxGeometry x="768" y="386" width="244" height="164" as="geometry" />
        </mxCell>
        <mxCell id="cSXNjDyf7hBkQ2mtIfp5-2" value="val id: Int" style="text;strokeColor=none;fillColor=none;align=left;verticalAlign=top;spacingLeft=4;spacingRight=4;overflow=hidden;rotatable=0;points=[[0,0.5],[1,0.5]];portConstraint=eastwest;whiteSpace=wrap;html=1;" parent="cSXNjDyf7hBkQ2mtIfp5-1" vertex="1">
          <mxGeometry y="26" width="244" height="26" as="geometry" />
        </mxCell>
        <mxCell id="cSXNjDyf7hBkQ2mtIfp5-3" value="" style="line;strokeWidth=1;fillColor=none;align=left;verticalAlign=middle;spacingTop=-1;spacingLeft=3;spacingRight=3;rotatable=0;labelPosition=right;points=[];portConstraint=eastwest;strokeColor=inherit;" parent="cSXNjDyf7hBkQ2mtIfp5-1" vertex="1">
          <mxGeometry y="52" width="244" height="8" as="geometry" />
        </mxCell>
        <mxCell id="cSXNjDyf7hBkQ2mtIfp5-45" value="fun accessiblePickos(): List&amp;lt;Int&amp;gt;" style="text;strokeColor=none;fillColor=none;align=left;verticalAlign=top;spacingLeft=4;spacingRight=4;overflow=hidden;rotatable=0;points=[[0,0.5],[1,0.5]];portConstraint=eastwest;whiteSpace=wrap;html=1;" parent="cSXNjDyf7hBkQ2mtIfp5-1" vertex="1">
          <mxGeometry y="60" width="244" height="26" as="geometry" />
        </mxCell>
        <mxCell id="cSXNjDyf7hBkQ2mtIfp5-46" value="fun pickosStackTops(): List&amp;lt;Int&amp;gt;" style="text;strokeColor=none;fillColor=none;align=left;verticalAlign=top;spacingLeft=4;spacingRight=4;overflow=hidden;rotatable=0;points=[[0,0.5],[1,0.5]];portConstraint=eastwest;whiteSpace=wrap;html=1;" parent="cSXNjDyf7hBkQ2mtIfp5-1" vertex="1">
          <mxGeometry y="86" width="244" height="26" as="geometry" />
        </mxCell>
        <mxCell id="cSXNjDyf7hBkQ2mtIfp5-47" value="fun score(): List&amp;lt;Int&amp;gt;" style="text;strokeColor=none;fillColor=none;align=left;verticalAlign=top;spacingLeft=4;spacingRight=4;overflow=hidden;rotatable=0;points=[[0,0.5],[1,0.5]];portConstraint=eastwest;whiteSpace=wrap;html=1;" parent="cSXNjDyf7hBkQ2mtIfp5-1" vertex="1">
          <mxGeometry y="112" width="244" height="26" as="geometry" />
        </mxCell>
        <mxCell id="cSXNjDyf7hBkQ2mtIfp5-48" value="open override fun toString(): String" style="text;strokeColor=none;fillColor=none;align=left;verticalAlign=top;spacingLeft=4;spacingRight=4;overflow=hidden;rotatable=0;points=[[0,0.5],[1,0.5]];portConstraint=eastwest;whiteSpace=wrap;html=1;" parent="cSXNjDyf7hBkQ2mtIfp5-1" vertex="1">
          <mxGeometry y="138" width="244" height="26" as="geometry" />
        </mxCell>
        <mxCell id="cSXNjDyf7hBkQ2mtIfp5-13" value="State" style="swimlane;fontStyle=1;align=center;verticalAlign=top;childLayout=stackLayout;horizontal=1;startSize=26;horizontalStack=0;resizeParent=1;resizeParentMax=0;resizeLast=0;collapsible=1;marginBottom=0;whiteSpace=wrap;html=1;" parent="1" vertex="1">
          <mxGeometry x="318" y="366" width="200" height="86" as="geometry" />
        </mxCell>
        <mxCell id="cSXNjDyf7hBkQ2mtIfp5-53" value="val player: Int" style="text;strokeColor=none;fillColor=none;align=left;verticalAlign=top;spacingLeft=4;spacingRight=4;overflow=hidden;rotatable=0;points=[[0,0.5],[1,0.5]];portConstraint=eastwest;whiteSpace=wrap;html=1;" parent="cSXNjDyf7hBkQ2mtIfp5-13" vertex="1">
          <mxGeometry y="26" width="200" height="26" as="geometry" />
        </mxCell>
        <mxCell id="cSXNjDyf7hBkQ2mtIfp5-15" value="" style="line;strokeWidth=1;fillColor=none;align=left;verticalAlign=middle;spacingTop=-1;spacingLeft=3;spacingRight=3;rotatable=0;labelPosition=right;points=[];portConstraint=eastwest;strokeColor=inherit;" parent="cSXNjDyf7hBkQ2mtIfp5-13" vertex="1">
          <mxGeometry y="52" width="200" height="8" as="geometry" />
        </mxCell>
        <mxCell id="cSXNjDyf7hBkQ2mtIfp5-16" value="open override fun toString(): String" style="text;strokeColor=none;fillColor=none;align=left;verticalAlign=top;spacingLeft=4;spacingRight=4;overflow=hidden;rotatable=0;points=[[0,0.5],[1,0.5]];portConstraint=eastwest;whiteSpace=wrap;html=1;" parent="cSXNjDyf7hBkQ2mtIfp5-13" vertex="1">
          <mxGeometry y="60" width="200" height="26" as="geometry" />
        </mxCell>
        <mxCell id="cSXNjDyf7hBkQ2mtIfp5-22" value="&amp;nbsp;DICE" style="swimlane;fontStyle=1;align=center;verticalAlign=top;childLayout=stackLayout;horizontal=1;startSize=26;horizontalStack=0;resizeParent=1;resizeParentMax=0;resizeLast=0;collapsible=1;marginBottom=0;whiteSpace=wrap;html=1;" parent="1" vertex="1">
          <mxGeometry x="318" y="592" width="160" height="242" as="geometry" />
        </mxCell>
        <mxCell id="cSXNjDyf7hBkQ2mtIfp5-42" value="val name: String" style="text;strokeColor=none;fillColor=none;align=left;verticalAlign=top;spacingLeft=4;spacingRight=4;overflow=hidden;rotatable=0;points=[[0,0.5],[1,0.5]];portConstraint=eastwest;whiteSpace=wrap;html=1;" parent="cSXNjDyf7hBkQ2mtIfp5-22" vertex="1">
          <mxGeometry y="26" width="160" height="26" as="geometry" />
        </mxCell>
        <mxCell id="cSXNjDyf7hBkQ2mtIfp5-23" value="val ordinal: Int" style="text;strokeColor=none;fillColor=none;align=left;verticalAlign=top;spacingLeft=4;spacingRight=4;overflow=hidden;rotatable=0;points=[[0,0.5],[1,0.5]];portConstraint=eastwest;whiteSpace=wrap;html=1;" parent="cSXNjDyf7hBkQ2mtIfp5-22" vertex="1">
          <mxGeometry y="52" width="160" height="26" as="geometry" />
        </mxCell>
        <mxCell id="cSXNjDyf7hBkQ2mtIfp5-24" value="" style="line;strokeWidth=1;fillColor=none;align=left;verticalAlign=middle;spacingTop=-1;spacingLeft=3;spacingRight=3;rotatable=0;labelPosition=right;points=[];portConstraint=eastwest;strokeColor=inherit;" parent="cSXNjDyf7hBkQ2mtIfp5-22" vertex="1">
          <mxGeometry y="78" width="160" height="8" as="geometry" />
        </mxCell>
        <mxCell id="cSXNjDyf7hBkQ2mtIfp5-36" value="&lt;div&gt;worm()&lt;/div&gt;&lt;div&gt;&lt;br&gt;&lt;/div&gt;" style="text;strokeColor=none;fillColor=none;align=left;verticalAlign=top;spacingLeft=4;spacingRight=4;overflow=hidden;rotatable=0;points=[[0,0.5],[1,0.5]];portConstraint=eastwest;whiteSpace=wrap;html=1;" parent="cSXNjDyf7hBkQ2mtIfp5-22" vertex="1">
          <mxGeometry y="86" width="160" height="26" as="geometry" />
        </mxCell>
        <mxCell id="cSXNjDyf7hBkQ2mtIfp5-39" value="&lt;div&gt;d5()&lt;/div&gt;&lt;div&gt;&lt;br&gt;&lt;/div&gt;" style="text;strokeColor=none;fillColor=none;align=left;verticalAlign=top;spacingLeft=4;spacingRight=4;overflow=hidden;rotatable=0;points=[[0,0.5],[1,0.5]];portConstraint=eastwest;whiteSpace=wrap;html=1;" parent="cSXNjDyf7hBkQ2mtIfp5-22" vertex="1">
          <mxGeometry y="112" width="160" height="26" as="geometry" />
        </mxCell>
        <mxCell id="cSXNjDyf7hBkQ2mtIfp5-38" value="&lt;div&gt;d4()&lt;/div&gt;&lt;div&gt;&lt;br&gt;&lt;/div&gt;" style="text;strokeColor=none;fillColor=none;align=left;verticalAlign=top;spacingLeft=4;spacingRight=4;overflow=hidden;rotatable=0;points=[[0,0.5],[1,0.5]];portConstraint=eastwest;whiteSpace=wrap;html=1;" parent="cSXNjDyf7hBkQ2mtIfp5-22" vertex="1">
          <mxGeometry y="138" width="160" height="26" as="geometry" />
        </mxCell>
        <mxCell id="cSXNjDyf7hBkQ2mtIfp5-41" value="&lt;div&gt;d3()&lt;/div&gt;&lt;div&gt;&lt;br&gt;&lt;/div&gt;" style="text;strokeColor=none;fillColor=none;align=left;verticalAlign=top;spacingLeft=4;spacingRight=4;overflow=hidden;rotatable=0;points=[[0,0.5],[1,0.5]];portConstraint=eastwest;whiteSpace=wrap;html=1;" parent="cSXNjDyf7hBkQ2mtIfp5-22" vertex="1">
          <mxGeometry y="164" width="160" height="26" as="geometry" />
        </mxCell>
        <mxCell id="cSXNjDyf7hBkQ2mtIfp5-40" value="&lt;div&gt;d2()&lt;/div&gt;&lt;div&gt;&lt;br&gt;&lt;/div&gt;" style="text;strokeColor=none;fillColor=none;align=left;verticalAlign=top;spacingLeft=4;spacingRight=4;overflow=hidden;rotatable=0;points=[[0,0.5],[1,0.5]];portConstraint=eastwest;whiteSpace=wrap;html=1;" parent="cSXNjDyf7hBkQ2mtIfp5-22" vertex="1">
          <mxGeometry y="190" width="160" height="26" as="geometry" />
        </mxCell>
        <mxCell id="cSXNjDyf7hBkQ2mtIfp5-37" value="&lt;div&gt;d1()&lt;/div&gt;&lt;div&gt;&lt;br&gt;&lt;/div&gt;" style="text;strokeColor=none;fillColor=none;align=left;verticalAlign=top;spacingLeft=4;spacingRight=4;overflow=hidden;rotatable=0;points=[[0,0.5],[1,0.5]];portConstraint=eastwest;whiteSpace=wrap;html=1;" parent="cSXNjDyf7hBkQ2mtIfp5-22" vertex="1">
          <mxGeometry y="216" width="160" height="26" as="geometry" />
        </mxCell>
        <mxCell id="cSXNjDyf7hBkQ2mtIfp5-54" value="STATUS" style="swimlane;fontStyle=1;align=center;verticalAlign=top;childLayout=stackLayout;horizontal=1;startSize=26;horizontalStack=0;resizeParent=1;resizeParentMax=0;resizeLast=0;collapsible=1;marginBottom=0;whiteSpace=wrap;html=1;" parent="1" vertex="1">
          <mxGeometry x="740" y="127" width="200" height="216" as="geometry" />
        </mxCell>
        <mxCell id="cSXNjDyf7hBkQ2mtIfp5-55" value="val name: String" style="text;strokeColor=none;fillColor=none;align=left;verticalAlign=top;spacingLeft=4;spacingRight=4;overflow=hidden;rotatable=0;points=[[0,0.5],[1,0.5]];portConstraint=eastwest;whiteSpace=wrap;html=1;" parent="cSXNjDyf7hBkQ2mtIfp5-54" vertex="1">
          <mxGeometry y="26" width="200" height="26" as="geometry" />
        </mxCell>
        <mxCell id="cSXNjDyf7hBkQ2mtIfp5-56" value="val ordinal: Int" style="text;strokeColor=none;fillColor=none;align=left;verticalAlign=top;spacingLeft=4;spacingRight=4;overflow=hidden;rotatable=0;points=[[0,0.5],[1,0.5]];portConstraint=eastwest;whiteSpace=wrap;html=1;" parent="cSXNjDyf7hBkQ2mtIfp5-54" vertex="1">
          <mxGeometry y="52" width="200" height="26" as="geometry" />
        </mxCell>
        <mxCell id="cSXNjDyf7hBkQ2mtIfp5-59" value="" style="line;strokeWidth=1;fillColor=none;align=left;verticalAlign=middle;spacingTop=-1;spacingLeft=3;spacingRight=3;rotatable=0;labelPosition=right;points=[];portConstraint=eastwest;strokeColor=inherit;" parent="cSXNjDyf7hBkQ2mtIfp5-54" vertex="1">
          <mxGeometry y="78" width="200" height="8" as="geometry" />
        </mxCell>
        <mxCell id="cSXNjDyf7hBkQ2mtIfp5-61" value="&lt;div&gt;GAME_FINISHED()&lt;/div&gt;&lt;div&gt;&lt;br&gt;&lt;/div&gt;" style="text;strokeColor=none;fillColor=none;align=left;verticalAlign=top;spacingLeft=4;spacingRight=4;overflow=hidden;rotatable=0;points=[[0,0.5],[1,0.5]];portConstraint=eastwest;whiteSpace=wrap;html=1;" parent="cSXNjDyf7hBkQ2mtIfp5-54" vertex="1">
          <mxGeometry y="86" width="200" height="26" as="geometry" />
        </mxCell>
        <mxCell id="cSXNjDyf7hBkQ2mtIfp5-62" value="&lt;div&gt;TAKE_PICKOMINO()&lt;/div&gt;&lt;div&gt;&lt;br&gt;&lt;/div&gt;" style="text;strokeColor=none;fillColor=none;align=left;verticalAlign=top;spacingLeft=4;spacingRight=4;overflow=hidden;rotatable=0;points=[[0,0.5],[1,0.5]];portConstraint=eastwest;whiteSpace=wrap;html=1;" parent="cSXNjDyf7hBkQ2mtIfp5-54" vertex="1">
          <mxGeometry y="112" width="200" height="26" as="geometry" />
        </mxCell>
        <mxCell id="cSXNjDyf7hBkQ2mtIfp5-63" value="&lt;div&gt;KEEP_DICE()&lt;/div&gt;&lt;div&gt;&lt;br&gt;&lt;/div&gt;" style="text;strokeColor=none;fillColor=none;align=left;verticalAlign=top;spacingLeft=4;spacingRight=4;overflow=hidden;rotatable=0;points=[[0,0.5],[1,0.5]];portConstraint=eastwest;whiteSpace=wrap;html=1;" parent="cSXNjDyf7hBkQ2mtIfp5-54" vertex="1">
          <mxGeometry y="138" width="200" height="26" as="geometry" />
        </mxCell>
        <mxCell id="cSXNjDyf7hBkQ2mtIfp5-64" value="&lt;div&gt;&lt;div&gt;ROLL_DICE_OR_TAKE_PICKOMINO()&lt;/div&gt;&lt;/div&gt;&lt;div&gt;&lt;br&gt;&lt;/div&gt;" style="text;strokeColor=none;fillColor=none;align=left;verticalAlign=top;spacingLeft=4;spacingRight=4;overflow=hidden;rotatable=0;points=[[0,0.5],[1,0.5]];portConstraint=eastwest;whiteSpace=wrap;html=1;" parent="cSXNjDyf7hBkQ2mtIfp5-54" vertex="1">
          <mxGeometry y="164" width="200" height="26" as="geometry" />
        </mxCell>
        <mxCell id="cSXNjDyf7hBkQ2mtIfp5-60" value="&lt;div&gt;&lt;div&gt;ROLL_DICE()&lt;/div&gt;&lt;/div&gt;&lt;div&gt;&lt;br&gt;&lt;/div&gt;" style="text;strokeColor=none;fillColor=none;align=left;verticalAlign=top;spacingLeft=4;spacingRight=4;overflow=hidden;rotatable=0;points=[[0,0.5],[1,0.5]];portConstraint=eastwest;whiteSpace=wrap;html=1;" parent="cSXNjDyf7hBkQ2mtIfp5-54" vertex="1">
          <mxGeometry y="190" width="200" height="26" as="geometry" />
        </mxCell>
        <mxCell id="cSXNjDyf7hBkQ2mtIfp5-51" value="val keptDices: List&amp;lt;DICE&amp;gt;" style="text;strokeColor=none;fillColor=none;align=left;verticalAlign=top;spacingLeft=4;spacingRight=4;overflow=hidden;rotatable=0;points=[[0,0.5],[1,0.5]];portConstraint=eastwest;whiteSpace=wrap;html=1;" parent="1" vertex="1">
          <mxGeometry x="187" y="465" width="200" height="26" as="geometry" />
        </mxCell>
        <mxCell id="cSXNjDyf7hBkQ2mtIfp5-52" value="val rolls: List&amp;lt;DICE&amp;gt;" style="text;strokeColor=none;fillColor=none;align=left;verticalAlign=top;spacingLeft=4;spacingRight=4;overflow=hidden;rotatable=0;points=[[0,0.5],[1,0.5]];portConstraint=eastwest;whiteSpace=wrap;html=1;" parent="1" vertex="1">
          <mxGeometry x="478" y="459" width="200" height="26" as="geometry" />
        </mxCell>
        <mxCell id="cSXNjDyf7hBkQ2mtIfp5-50" value="val status: STATUS" style="text;strokeColor=none;fillColor=none;align=left;verticalAlign=top;spacingLeft=4;spacingRight=4;overflow=hidden;rotatable=0;points=[[0,0.5],[1,0.5]];portConstraint=eastwest;whiteSpace=wrap;html=1;" parent="1" vertex="1">
          <mxGeometry x="424" y="332" width="200" height="26" as="geometry" />
        </mxCell>
        <mxCell id="cSXNjDyf7hBkQ2mtIfp5-65" value="1" style="endArrow=open;html=1;endSize=12;startArrow=diamondThin;startSize=14;startFill=1;edgeStyle=orthogonalEdgeStyle;align=left;verticalAlign=bottom;rounded=0;" parent="1" source="cSXNjDyf7hBkQ2mtIfp5-13" target="cSXNjDyf7hBkQ2mtIfp5-54" edge="1">
          <mxGeometry x="-1" y="3" relative="1" as="geometry">
            <mxPoint x="839" y="314" as="sourcePoint" />
            <mxPoint x="999" y="314" as="targetPoint" />
            <Array as="points">
              <mxPoint x="418" y="141" />
            </Array>
          </mxGeometry>
        </mxCell>
        <mxCell id="cSXNjDyf7hBkQ2mtIfp5-66" value="Relation" style="endArrow=open;html=1;endSize=12;startArrow=diamondThin;startSize=14;startFill=0;edgeStyle=orthogonalEdgeStyle;rounded=0;" parent="1" source="cSXNjDyf7hBkQ2mtIfp5-13" target="cSXNjDyf7hBkQ2mtIfp5-22" edge="1">
          <mxGeometry relative="1" as="geometry">
            <mxPoint x="839" y="573" as="sourcePoint" />
            <mxPoint x="999" y="573" as="targetPoint" />
            <Array as="points">
              <mxPoint x="334" y="560" />
              <mxPoint x="334" y="560" />
            </Array>
          </mxGeometry>
        </mxCell>
        <mxCell id="cSXNjDyf7hBkQ2mtIfp5-67" value="0..n" style="edgeLabel;resizable=0;html=1;align=left;verticalAlign=top;" parent="cSXNjDyf7hBkQ2mtIfp5-66" connectable="0" vertex="1">
          <mxGeometry x="-1" relative="1" as="geometry" />
        </mxCell>
        <mxCell id="cSXNjDyf7hBkQ2mtIfp5-68" value="1" style="edgeLabel;resizable=0;html=1;align=right;verticalAlign=top;" parent="cSXNjDyf7hBkQ2mtIfp5-66" connectable="0" vertex="1">
          <mxGeometry x="1" relative="1" as="geometry" />
        </mxCell>
        <mxCell id="cSXNjDyf7hBkQ2mtIfp5-69" value="Relation" style="endArrow=open;html=1;endSize=12;startArrow=diamondThin;startSize=14;startFill=0;edgeStyle=orthogonalEdgeStyle;rounded=0;" parent="1" source="cSXNjDyf7hBkQ2mtIfp5-13" target="cSXNjDyf7hBkQ2mtIfp5-22" edge="1">
          <mxGeometry relative="1" as="geometry">
            <mxPoint x="344" y="462" as="sourcePoint" />
            <mxPoint x="344" y="602" as="targetPoint" />
            <Array as="points">
              <mxPoint x="454" y="488" />
              <mxPoint x="454" y="488" />
            </Array>
          </mxGeometry>
        </mxCell>
        <mxCell id="cSXNjDyf7hBkQ2mtIfp5-70" value="0..n" style="edgeLabel;resizable=0;html=1;align=left;verticalAlign=top;" parent="cSXNjDyf7hBkQ2mtIfp5-69" connectable="0" vertex="1">
          <mxGeometry x="-1" relative="1" as="geometry" />
        </mxCell>
        <mxCell id="cSXNjDyf7hBkQ2mtIfp5-71" value="1" style="edgeLabel;resizable=0;html=1;align=right;verticalAlign=top;" parent="cSXNjDyf7hBkQ2mtIfp5-69" connectable="0" vertex="1">
          <mxGeometry x="1" relative="1" as="geometry" />
        </mxCell>
        <mxCell id="cSXNjDyf7hBkQ2mtIfp5-43" value="val current: State" style="text;strokeColor=none;fillColor=none;align=left;verticalAlign=top;spacingLeft=4;spacingRight=4;overflow=hidden;rotatable=0;points=[[0,0.5],[1,0.5]];portConstraint=eastwest;whiteSpace=wrap;html=1;" parent="1" vertex="1">
          <mxGeometry x="666" y="415" width="244" height="26" as="geometry" />
        </mxCell>
        <mxCell id="cSXNjDyf7hBkQ2mtIfp5-73" value="1" style="endArrow=open;html=1;endSize=12;startArrow=diamondThin;startSize=14;startFill=1;edgeStyle=orthogonalEdgeStyle;align=left;verticalAlign=bottom;rounded=0;" parent="1" source="cSXNjDyf7hBkQ2mtIfp5-1" target="cSXNjDyf7hBkQ2mtIfp5-13" edge="1">
          <mxGeometry x="-1" y="3" relative="1" as="geometry">
            <mxPoint x="820" y="459" as="sourcePoint" />
            <mxPoint x="980" y="459" as="targetPoint" />
            <Array as="points">
              <mxPoint x="733" y="409" />
              <mxPoint x="733" y="409" />
            </Array>
          </mxGeometry>
        </mxCell>
        <mxCell id="tUZ9aXgOReJQeI9EX30n-1" value="Sever" style="swimlane;whiteSpace=wrap;html=1;fillColor=#e1d5e7;strokeColor=#9673a6;" parent="1" vertex="1">
          <mxGeometry x="238" y="72" width="1275" height="833" as="geometry" />
        </mxCell>
        <mxCell id="cSXNjDyf7hBkQ2mtIfp5-18" value="Pickomino" style="swimlane;fontStyle=1;align=center;verticalAlign=top;childLayout=stackLayout;horizontal=1;startSize=26;horizontalStack=0;resizeParent=1;resizeParentMax=0;resizeLast=0;collapsible=1;marginBottom=0;whiteSpace=wrap;html=1;" parent="tUZ9aXgOReJQeI9EX30n-1" vertex="1">
          <mxGeometry x="543" y="490" width="227" height="112" as="geometry" />
        </mxCell>
        <mxCell id="cSXNjDyf7hBkQ2mtIfp5-49" value="val value: Int" style="text;strokeColor=none;fillColor=none;align=left;verticalAlign=top;spacingLeft=4;spacingRight=4;overflow=hidden;rotatable=0;points=[[0,0.5],[1,0.5]];portConstraint=eastwest;whiteSpace=wrap;html=1;" parent="cSXNjDyf7hBkQ2mtIfp5-18" vertex="1">
          <mxGeometry y="26" width="227" height="26" as="geometry" />
        </mxCell>
        <mxCell id="cSXNjDyf7hBkQ2mtIfp5-19" value="val nbWorms: Int" style="text;strokeColor=none;fillColor=none;align=left;verticalAlign=top;spacingLeft=4;spacingRight=4;overflow=hidden;rotatable=0;points=[[0,0.5],[1,0.5]];portConstraint=eastwest;whiteSpace=wrap;html=1;" parent="cSXNjDyf7hBkQ2mtIfp5-18" vertex="1">
          <mxGeometry y="52" width="227" height="26" as="geometry" />
        </mxCell>
        <mxCell id="cSXNjDyf7hBkQ2mtIfp5-20" value="" style="line;strokeWidth=1;fillColor=none;align=left;verticalAlign=middle;spacingTop=-1;spacingLeft=3;spacingRight=3;rotatable=0;labelPosition=right;points=[];portConstraint=eastwest;strokeColor=inherit;" parent="cSXNjDyf7hBkQ2mtIfp5-18" vertex="1">
          <mxGeometry y="78" width="227" height="8" as="geometry" />
        </mxCell>
        <mxCell id="cSXNjDyf7hBkQ2mtIfp5-21" value="fun Pickomino(value: Int, nbWorms: Int)" style="text;strokeColor=none;fillColor=none;align=left;verticalAlign=top;spacingLeft=4;spacingRight=4;overflow=hidden;rotatable=0;points=[[0,0.5],[1,0.5]];portConstraint=eastwest;whiteSpace=wrap;html=1;" parent="cSXNjDyf7hBkQ2mtIfp5-18" vertex="1">
          <mxGeometry y="86" width="227" height="26" as="geometry" />
        </mxCell>
        <mxCell id="cSXNjDyf7hBkQ2mtIfp5-5" value="Connector" style="swimlane;fontStyle=1;align=center;verticalAlign=top;childLayout=stackLayout;horizontal=1;startSize=26;horizontalStack=0;resizeParent=1;resizeParentMax=0;resizeLast=0;collapsible=1;marginBottom=0;whiteSpace=wrap;html=1;" parent="tUZ9aXgOReJQeI9EX30n-1" vertex="1">
          <mxGeometry x="896" y="184" width="359" height="268" as="geometry" />
        </mxCell>
        <mxCell id="cSXNjDyf7hBkQ2mtIfp5-6" value="+ field: type" style="text;strokeColor=none;fillColor=none;align=left;verticalAlign=top;spacingLeft=4;spacingRight=4;overflow=hidden;rotatable=0;points=[[0,0.5],[1,0.5]];portConstraint=eastwest;whiteSpace=wrap;html=1;" parent="cSXNjDyf7hBkQ2mtIfp5-5" vertex="1">
          <mxGeometry y="26" width="359" height="26" as="geometry" />
        </mxCell>
        <mxCell id="cSXNjDyf7hBkQ2mtIfp5-7" value="" style="line;strokeWidth=1;fillColor=none;align=left;verticalAlign=middle;spacingTop=-1;spacingLeft=3;spacingRight=3;rotatable=0;labelPosition=right;points=[];portConstraint=eastwest;strokeColor=inherit;" parent="cSXNjDyf7hBkQ2mtIfp5-5" vertex="1">
          <mxGeometry y="52" width="359" height="8" as="geometry" />
        </mxCell>
        <mxCell id="cSXNjDyf7hBkQ2mtIfp5-8" value="fun choiceDices(id: Int, key: Int, dices: List&amp;lt;DICE&amp;gt;): List&amp;lt;DICE&amp;gt;" style="text;strokeColor=none;fillColor=none;align=left;verticalAlign=top;spacingLeft=4;spacingRight=4;overflow=hidden;rotatable=0;points=[[0,0.5],[1,0.5]];portConstraint=eastwest;whiteSpace=wrap;html=1;" parent="cSXNjDyf7hBkQ2mtIfp5-5" vertex="1">
          <mxGeometry y="60" width="359" height="26" as="geometry" />
        </mxCell>
        <mxCell id="cSXNjDyf7hBkQ2mtIfp5-27" value="fun finalScore(id: Int, key: Int): List&amp;lt;Int&amp;gt;" style="text;strokeColor=none;fillColor=none;align=left;verticalAlign=top;spacingLeft=4;spacingRight=4;overflow=hidden;rotatable=0;points=[[0,0.5],[1,0.5]];portConstraint=eastwest;whiteSpace=wrap;html=1;" parent="cSXNjDyf7hBkQ2mtIfp5-5" vertex="1">
          <mxGeometry y="86" width="359" height="26" as="geometry" />
        </mxCell>
        <mxCell id="cSXNjDyf7hBkQ2mtIfp5-29" value="fun gameState(id: Int, key: Int): Game" style="text;strokeColor=none;fillColor=none;align=left;verticalAlign=top;spacingLeft=4;spacingRight=4;overflow=hidden;rotatable=0;points=[[0,0.5],[1,0.5]];portConstraint=eastwest;whiteSpace=wrap;html=1;" parent="cSXNjDyf7hBkQ2mtIfp5-5" vertex="1">
          <mxGeometry y="112" width="359" height="26" as="geometry" />
        </mxCell>
        <mxCell id="cSXNjDyf7hBkQ2mtIfp5-30" value="fun keepDices(id: Int, key: Int, dice: DICE): Boolean" style="text;strokeColor=none;fillColor=none;align=left;verticalAlign=top;spacingLeft=4;spacingRight=4;overflow=hidden;rotatable=0;points=[[0,0.5],[1,0.5]];portConstraint=eastwest;whiteSpace=wrap;html=1;" parent="cSXNjDyf7hBkQ2mtIfp5-5" vertex="1">
          <mxGeometry y="138" width="359" height="26" as="geometry" />
        </mxCell>
        <mxCell id="cSXNjDyf7hBkQ2mtIfp5-31" value="&lt;div&gt;fun listOfGameIds(): List&amp;lt;Int&amp;gt;&lt;/div&gt;" style="text;strokeColor=none;fillColor=none;align=left;verticalAlign=top;spacingLeft=4;spacingRight=4;overflow=hidden;rotatable=0;points=[[0,0.5],[1,0.5]];portConstraint=eastwest;whiteSpace=wrap;html=1;" parent="cSXNjDyf7hBkQ2mtIfp5-5" vertex="1">
          <mxGeometry y="164" width="359" height="26" as="geometry" />
        </mxCell>
        <mxCell id="cSXNjDyf7hBkQ2mtIfp5-28" value="fun newGame(nbPlayers: Int): Pair&amp;lt;Int, Int&amp;gt;" style="text;strokeColor=none;fillColor=none;align=left;verticalAlign=top;spacingLeft=4;spacingRight=4;overflow=hidden;rotatable=0;points=[[0,0.5],[1,0.5]];portConstraint=eastwest;whiteSpace=wrap;html=1;" parent="cSXNjDyf7hBkQ2mtIfp5-5" vertex="1">
          <mxGeometry y="190" width="359" height="26" as="geometry" />
        </mxCell>
        <mxCell id="cSXNjDyf7hBkQ2mtIfp5-26" value="fun rollDices(id: Int, key: Int): List&amp;lt;DICE&amp;gt;" style="text;strokeColor=none;fillColor=none;align=left;verticalAlign=top;spacingLeft=4;spacingRight=4;overflow=hidden;rotatable=0;points=[[0,0.5],[1,0.5]];portConstraint=eastwest;whiteSpace=wrap;html=1;" parent="cSXNjDyf7hBkQ2mtIfp5-5" vertex="1">
          <mxGeometry y="216" width="359" height="26" as="geometry" />
        </mxCell>
        <mxCell id="cSXNjDyf7hBkQ2mtIfp5-35" value="fun takePickomino(id: Int, key: Int, pickomino: Int): Boolean" style="text;strokeColor=none;fillColor=none;align=left;verticalAlign=top;spacingLeft=4;spacingRight=4;overflow=hidden;rotatable=0;points=[[0,0.5],[1,0.5]];portConstraint=eastwest;whiteSpace=wrap;html=1;" parent="cSXNjDyf7hBkQ2mtIfp5-5" vertex="1">
          <mxGeometry y="242" width="359" height="26" as="geometry" />
        </mxCell>
        <mxCell id="tUZ9aXgOReJQeI9EX30n-2" value="Main" style="swimlane;whiteSpace=wrap;html=1;fillColor=#f8cecc;strokeColor=#b85450;" parent="1" vertex="1">
          <mxGeometry x="1635" y="72" width="2333" height="981" as="geometry" />
        </mxCell>
        <mxCell id="tUZ9aXgOReJQeI9EX30n-59" value="Modele" style="swimlane;whiteSpace=wrap;html=1;fillColor=#ffe6cc;strokeColor=#d79b00;" parent="tUZ9aXgOReJQeI9EX30n-2" vertex="1">
          <mxGeometry x="54" y="48" width="943" height="782" as="geometry" />
        </mxCell>
        <mxCell id="tUZ9aXgOReJQeI9EX30n-3" value="Player" style="swimlane;fontStyle=1;align=center;verticalAlign=top;childLayout=stackLayout;horizontal=1;startSize=26;horizontalStack=0;resizeParent=1;resizeParentMax=0;resizeLast=0;collapsible=1;marginBottom=0;whiteSpace=wrap;html=1;" parent="tUZ9aXgOReJQeI9EX30n-59" vertex="1">
          <mxGeometry x="394" y="141.99999999999994" width="222" height="216" as="geometry" />
        </mxCell>
        <mxCell id="tUZ9aXgOReJQeI9EX30n-4" value="private val numberPlayer : Int&amp;nbsp;" style="text;strokeColor=none;fillColor=none;align=left;verticalAlign=top;spacingLeft=4;spacingRight=4;overflow=hidden;rotatable=0;points=[[0,0.5],[1,0.5]];portConstraint=eastwest;whiteSpace=wrap;html=1;" parent="tUZ9aXgOReJQeI9EX30n-3" vertex="1">
          <mxGeometry y="26" width="222" height="26" as="geometry" />
        </mxCell>
        <mxCell id="tUZ9aXgOReJQeI9EX30n-5" value="val localPlayer : Boolean" style="text;strokeColor=none;fillColor=none;align=left;verticalAlign=top;spacingLeft=4;spacingRight=4;overflow=hidden;rotatable=0;points=[[0,0.5],[1,0.5]];portConstraint=eastwest;whiteSpace=wrap;html=1;" parent="tUZ9aXgOReJQeI9EX30n-3" vertex="1">
          <mxGeometry y="52" width="222" height="26" as="geometry" />
        </mxCell>
        <mxCell id="tUZ9aXgOReJQeI9EX30n-7" value="" style="line;strokeWidth=1;fillColor=none;align=left;verticalAlign=middle;spacingTop=-1;spacingLeft=3;spacingRight=3;rotatable=0;labelPosition=right;points=[];portConstraint=eastwest;strokeColor=inherit;" parent="tUZ9aXgOReJQeI9EX30n-3" vertex="1">
          <mxGeometry y="78" width="222" height="8" as="geometry" />
        </mxCell>
        <mxCell id="tUZ9aXgOReJQeI9EX30n-51" value="+ countWorms(): int" style="text;strokeColor=none;fillColor=none;align=left;verticalAlign=top;spacingLeft=4;spacingRight=4;overflow=hidden;rotatable=0;points=[[0,0.5],[1,0.5]];portConstraint=eastwest;whiteSpace=wrap;html=1;" parent="tUZ9aXgOReJQeI9EX30n-3" vertex="1">
          <mxGeometry y="86" width="222" height="26" as="geometry" />
        </mxCell>
        <mxCell id="tUZ9aXgOReJQeI9EX30n-53" value="+ firstelemnt():&amp;nbsp;Pickomino" style="text;strokeColor=none;fillColor=none;align=left;verticalAlign=top;spacingLeft=4;spacingRight=4;overflow=hidden;rotatable=0;points=[[0,0.5],[1,0.5]];portConstraint=eastwest;whiteSpace=wrap;html=1;" parent="tUZ9aXgOReJQeI9EX30n-3" vertex="1">
          <mxGeometry y="112" width="222" height="26" as="geometry" />
        </mxCell>
        <mxCell id="tUZ9aXgOReJQeI9EX30n-54" value="+ add(v :Pickomino)" style="text;strokeColor=none;fillColor=none;align=left;verticalAlign=top;spacingLeft=4;spacingRight=4;overflow=hidden;rotatable=0;points=[[0,0.5],[1,0.5]];portConstraint=eastwest;whiteSpace=wrap;html=1;" parent="tUZ9aXgOReJQeI9EX30n-3" vertex="1">
          <mxGeometry y="138" width="222" height="26" as="geometry" />
        </mxCell>
        <mxCell id="uYs_JKX0Gq04gsp21qCu-60" value="+ removelement():&amp;nbsp;Pickomino" style="text;strokeColor=none;fillColor=none;align=left;verticalAlign=top;spacingLeft=4;spacingRight=4;overflow=hidden;rotatable=0;points=[[0,0.5],[1,0.5]];portConstraint=eastwest;whiteSpace=wrap;html=1;" parent="tUZ9aXgOReJQeI9EX30n-3" vertex="1">
          <mxGeometry y="164" width="222" height="26" as="geometry" />
        </mxCell>
        <mxCell id="tUZ9aXgOReJQeI9EX30n-55" value="PickominoIs(picko : Pickomino)" style="text;strokeColor=none;fillColor=none;align=left;verticalAlign=top;spacingLeft=4;spacingRight=4;overflow=hidden;rotatable=0;points=[[0,0.5],[1,0.5]];portConstraint=eastwest;whiteSpace=wrap;html=1;" parent="tUZ9aXgOReJQeI9EX30n-3" vertex="1">
          <mxGeometry y="190" width="222" height="26" as="geometry" />
        </mxCell>
        <mxCell id="tUZ9aXgOReJQeI9EX30n-9" value="Game" style="swimlane;fontStyle=1;align=center;verticalAlign=top;childLayout=stackLayout;horizontal=1;startSize=25;horizontalStack=0;resizeParent=1;resizeParentMax=0;resizeLast=0;collapsible=1;marginBottom=0;whiteSpace=wrap;html=1;" parent="tUZ9aXgOReJQeI9EX30n-59" vertex="1">
          <mxGeometry x="94" y="396" width="326" height="241" as="geometry" />
        </mxCell>
        <mxCell id="uYs_JKX0Gq04gsp21qCu-50" value="numérojoueur :Int = numérojoueur" style="text;strokeColor=none;fillColor=none;align=left;verticalAlign=top;spacingLeft=4;spacingRight=4;overflow=hidden;rotatable=0;points=[[0,0.5],[1,0.5]];portConstraint=eastwest;whiteSpace=wrap;html=1;" parent="tUZ9aXgOReJQeI9EX30n-9" vertex="1">
          <mxGeometry y="25" width="326" height="26" as="geometry" />
        </mxCell>
        <mxCell id="tUZ9aXgOReJQeI9EX30n-13" value="" style="line;strokeWidth=1;fillColor=none;align=left;verticalAlign=middle;spacingTop=-1;spacingLeft=3;spacingRight=3;rotatable=0;labelPosition=right;points=[];portConstraint=eastwest;strokeColor=inherit;" parent="tUZ9aXgOReJQeI9EX30n-9" vertex="1">
          <mxGeometry y="51" width="326" height="8" as="geometry" />
        </mxCell>
        <mxCell id="uYs_JKX0Gq04gsp21qCu-52" value="+ preremplir()" style="text;strokeColor=none;fillColor=none;align=left;verticalAlign=top;spacingLeft=4;spacingRight=4;overflow=hidden;rotatable=0;points=[[0,0.5],[1,0.5]];portConstraint=eastwest;whiteSpace=wrap;html=1;" parent="tUZ9aXgOReJQeI9EX30n-9" vertex="1">
          <mxGeometry y="59" width="326" height="26" as="geometry" />
        </mxCell>
        <mxCell id="uYs_JKX0Gq04gsp21qCu-53" value="addPlayer( player : Player) : Boolean" style="text;strokeColor=none;fillColor=none;align=left;verticalAlign=top;spacingLeft=4;spacingRight=4;overflow=hidden;rotatable=0;points=[[0,0.5],[1,0.5]];portConstraint=eastwest;whiteSpace=wrap;html=1;" parent="tUZ9aXgOReJQeI9EX30n-9" vertex="1">
          <mxGeometry y="85" width="326" height="26" as="geometry" />
        </mxCell>
        <mxCell id="tUZ9aXgOReJQeI9EX30n-52" value="removeElement(Picko:Pickomino)" style="text;strokeColor=none;fillColor=none;align=left;verticalAlign=top;spacingLeft=4;spacingRight=4;overflow=hidden;rotatable=0;points=[[0,0.5],[1,0.5]];portConstraint=eastwest;whiteSpace=wrap;html=1;" parent="tUZ9aXgOReJQeI9EX30n-9" vertex="1">
          <mxGeometry y="111" width="326" height="26" as="geometry" />
        </mxCell>
        <mxCell id="SRAuX0WiNzy-F5Oe3qwx-1" value="playerList():MutableList&amp;lt;Player&amp;gt;" style="text;strokeColor=none;fillColor=none;align=left;verticalAlign=top;spacingLeft=4;spacingRight=4;overflow=hidden;rotatable=0;points=[[0,0.5],[1,0.5]];portConstraint=eastwest;whiteSpace=wrap;html=1;" parent="tUZ9aXgOReJQeI9EX30n-9" vertex="1">
          <mxGeometry y="137" width="326" height="26" as="geometry" />
        </mxCell>
        <mxCell id="SRAuX0WiNzy-F5Oe3qwx-2" value="getPickos(): MutableCollection&amp;lt;Pickomino&amp;gt;" style="text;strokeColor=none;fillColor=none;align=left;verticalAlign=top;spacingLeft=4;spacingRight=4;overflow=hidden;rotatable=0;points=[[0,0.5],[1,0.5]];portConstraint=eastwest;whiteSpace=wrap;html=1;" parent="tUZ9aXgOReJQeI9EX30n-9" vertex="1">
          <mxGeometry y="163" width="326" height="26" as="geometry" />
        </mxCell>
        <mxCell id="SRAuX0WiNzy-F5Oe3qwx-3" value="setDice(diceskept : List&amp;lt;DICE&amp;gt;, diceschosen : List&amp;lt;DICE&amp;gt;)" style="text;strokeColor=none;fillColor=none;align=left;verticalAlign=top;spacingLeft=4;spacingRight=4;overflow=hidden;rotatable=0;points=[[0,0.5],[1,0.5]];portConstraint=eastwest;whiteSpace=wrap;html=1;" parent="tUZ9aXgOReJQeI9EX30n-9" vertex="1">
          <mxGeometry y="189" width="326" height="26" as="geometry" />
        </mxCell>
        <mxCell id="tUZ9aXgOReJQeI9EX30n-14" value="setPickomino(Pickominos : List&amp;lt;Int&amp;gt;)" style="text;strokeColor=none;fillColor=none;align=left;verticalAlign=top;spacingLeft=4;spacingRight=4;overflow=hidden;rotatable=0;points=[[0,0.5],[1,0.5]];portConstraint=eastwest;whiteSpace=wrap;html=1;" parent="tUZ9aXgOReJQeI9EX30n-9" vertex="1">
          <mxGeometry y="215" width="326" height="26" as="geometry" />
        </mxCell>
        <mxCell id="tUZ9aXgOReJQeI9EX30n-10" value="list_player&amp;nbsp;" style="text;strokeColor=none;fillColor=none;align=left;verticalAlign=top;spacingLeft=4;spacingRight=4;overflow=hidden;rotatable=0;points=[[0,0.5],[1,0.5]];portConstraint=eastwest;whiteSpace=wrap;html=1;" parent="tUZ9aXgOReJQeI9EX30n-59" vertex="1">
          <mxGeometry x="299" y="367" width="185" height="26" as="geometry" />
        </mxCell>
        <mxCell id="tUZ9aXgOReJQeI9EX30n-17" value="Relation" style="endArrow=open;html=1;endSize=12;startArrow=diamondThin;startSize=14;startFill=0;edgeStyle=orthogonalEdgeStyle;rounded=0;" parent="tUZ9aXgOReJQeI9EX30n-59" source="tUZ9aXgOReJQeI9EX30n-9" target="tUZ9aXgOReJQeI9EX30n-3" edge="1">
          <mxGeometry relative="1" as="geometry">
            <mxPoint x="305" y="223" as="sourcePoint" />
            <mxPoint x="465" y="223" as="targetPoint" />
            <Array as="points">
              <mxPoint x="370" y="323" />
              <mxPoint x="370" y="323" />
            </Array>
          </mxGeometry>
        </mxCell>
        <mxCell id="tUZ9aXgOReJQeI9EX30n-18" value="0..n" style="edgeLabel;resizable=0;html=1;align=left;verticalAlign=top;" parent="tUZ9aXgOReJQeI9EX30n-17" connectable="0" vertex="1">
          <mxGeometry x="-1" relative="1" as="geometry" />
        </mxCell>
        <mxCell id="tUZ9aXgOReJQeI9EX30n-19" value="1" style="edgeLabel;resizable=0;html=1;align=right;verticalAlign=top;" parent="tUZ9aXgOReJQeI9EX30n-17" connectable="0" vertex="1">
          <mxGeometry x="1" relative="1" as="geometry" />
        </mxCell>
        <mxCell id="tUZ9aXgOReJQeI9EX30n-25" value="Pickomino" style="swimlane;fontStyle=1;align=center;verticalAlign=top;childLayout=stackLayout;horizontal=1;startSize=26;horizontalStack=0;resizeParent=1;resizeParentMax=0;resizeLast=0;collapsible=1;marginBottom=0;whiteSpace=wrap;html=1;" parent="tUZ9aXgOReJQeI9EX30n-59" vertex="1">
          <mxGeometry x="570" y="477" width="227" height="164" as="geometry" />
        </mxCell>
        <mxCell id="tUZ9aXgOReJQeI9EX30n-26" value="val value: Int" style="text;strokeColor=none;fillColor=none;align=left;verticalAlign=top;spacingLeft=4;spacingRight=4;overflow=hidden;rotatable=0;points=[[0,0.5],[1,0.5]];portConstraint=eastwest;whiteSpace=wrap;html=1;" parent="tUZ9aXgOReJQeI9EX30n-25" vertex="1">
          <mxGeometry y="26" width="227" height="26" as="geometry" />
        </mxCell>
        <mxCell id="tUZ9aXgOReJQeI9EX30n-27" value="val nbWorms: Int" style="text;strokeColor=none;fillColor=none;align=left;verticalAlign=top;spacingLeft=4;spacingRight=4;overflow=hidden;rotatable=0;points=[[0,0.5],[1,0.5]];portConstraint=eastwest;whiteSpace=wrap;html=1;" parent="tUZ9aXgOReJQeI9EX30n-25" vertex="1">
          <mxGeometry y="52" width="227" height="26" as="geometry" />
        </mxCell>
        <mxCell id="tUZ9aXgOReJQeI9EX30n-28" value="" style="line;strokeWidth=1;fillColor=none;align=left;verticalAlign=middle;spacingTop=-1;spacingLeft=3;spacingRight=3;rotatable=0;labelPosition=right;points=[];portConstraint=eastwest;strokeColor=inherit;" parent="tUZ9aXgOReJQeI9EX30n-25" vertex="1">
          <mxGeometry y="78" width="227" height="8" as="geometry" />
        </mxCell>
        <mxCell id="uYs_JKX0Gq04gsp21qCu-56" value="fun Pickomino(value: Int, nbWorms: Int)" style="text;strokeColor=none;fillColor=none;align=left;verticalAlign=top;spacingLeft=4;spacingRight=4;overflow=hidden;rotatable=0;points=[[0,0.5],[1,0.5]];portConstraint=eastwest;whiteSpace=wrap;html=1;" parent="tUZ9aXgOReJQeI9EX30n-25" vertex="1">
          <mxGeometry y="86" width="227" height="26" as="geometry" />
        </mxCell>
        <mxCell id="uYs_JKX0Gq04gsp21qCu-57" value="getValue() :Int" style="text;strokeColor=none;fillColor=none;align=left;verticalAlign=top;spacingLeft=4;spacingRight=4;overflow=hidden;rotatable=0;points=[[0,0.5],[1,0.5]];portConstraint=eastwest;whiteSpace=wrap;html=1;" parent="tUZ9aXgOReJQeI9EX30n-25" vertex="1">
          <mxGeometry y="112" width="227" height="26" as="geometry" />
        </mxCell>
        <mxCell id="tUZ9aXgOReJQeI9EX30n-29" value="getnbWorm() :Int" style="text;strokeColor=none;fillColor=none;align=left;verticalAlign=top;spacingLeft=4;spacingRight=4;overflow=hidden;rotatable=0;points=[[0,0.5],[1,0.5]];portConstraint=eastwest;whiteSpace=wrap;html=1;" parent="tUZ9aXgOReJQeI9EX30n-25" vertex="1">
          <mxGeometry y="138" width="227" height="26" as="geometry" />
        </mxCell>
        <mxCell id="tUZ9aXgOReJQeI9EX30n-30" value="contient" style="endArrow=open;html=1;endSize=12;startArrow=diamondThin;startSize=14;startFill=0;edgeStyle=orthogonalEdgeStyle;rounded=0;" parent="tUZ9aXgOReJQeI9EX30n-59" source="tUZ9aXgOReJQeI9EX30n-9" target="tUZ9aXgOReJQeI9EX30n-25" edge="1">
          <mxGeometry relative="1" as="geometry">
            <mxPoint x="677" y="334" as="sourcePoint" />
            <mxPoint x="837" y="334" as="targetPoint" />
            <Array as="points">
              <mxPoint x="257" y="655" />
              <mxPoint x="684" y="655" />
            </Array>
          </mxGeometry>
        </mxCell>
        <mxCell id="tUZ9aXgOReJQeI9EX30n-31" value="0..n" style="edgeLabel;resizable=0;html=1;align=left;verticalAlign=top;" parent="tUZ9aXgOReJQeI9EX30n-30" connectable="0" vertex="1">
          <mxGeometry x="-1" relative="1" as="geometry">
            <mxPoint x="5" y="-21" as="offset" />
          </mxGeometry>
        </mxCell>
        <mxCell id="tUZ9aXgOReJQeI9EX30n-32" value="1" style="edgeLabel;resizable=0;html=1;align=right;verticalAlign=top;" parent="tUZ9aXgOReJQeI9EX30n-30" connectable="0" vertex="1">
          <mxGeometry x="1" relative="1" as="geometry" />
        </mxCell>
        <mxCell id="tUZ9aXgOReJQeI9EX30n-33" value="Relation" style="endArrow=open;html=1;endSize=12;startArrow=diamondThin;startSize=14;startFill=0;edgeStyle=orthogonalEdgeStyle;rounded=0;" parent="tUZ9aXgOReJQeI9EX30n-59" source="tUZ9aXgOReJQeI9EX30n-3" target="tUZ9aXgOReJQeI9EX30n-25" edge="1">
          <mxGeometry relative="1" as="geometry">
            <mxPoint x="677" y="334" as="sourcePoint" />
            <mxPoint x="837" y="334" as="targetPoint" />
            <Array as="points">
              <mxPoint x="598" y="441" />
              <mxPoint x="598" y="441" />
            </Array>
          </mxGeometry>
        </mxCell>
        <mxCell id="tUZ9aXgOReJQeI9EX30n-34" value="0..n" style="edgeLabel;resizable=0;html=1;align=left;verticalAlign=top;" parent="tUZ9aXgOReJQeI9EX30n-33" connectable="0" vertex="1">
          <mxGeometry x="-1" relative="1" as="geometry" />
        </mxCell>
        <mxCell id="tUZ9aXgOReJQeI9EX30n-35" value="1" style="edgeLabel;resizable=0;html=1;align=right;verticalAlign=top;" parent="tUZ9aXgOReJQeI9EX30n-33" connectable="0" vertex="1">
          <mxGeometry x="1" relative="1" as="geometry" />
        </mxCell>
        <mxCell id="2" value="Client" style="swimlane;fontStyle=1;align=center;verticalAlign=top;childLayout=stackLayout;horizontal=1;startSize=26;horizontalStack=0;resizeParent=1;resizeParentMax=0;resizeLast=0;collapsible=1;marginBottom=0;whiteSpace=wrap;html=1;" parent="tUZ9aXgOReJQeI9EX30n-59" vertex="1">
          <mxGeometry x="6" y="84" width="250" height="242" as="geometry" />
        </mxCell>
        <mxCell id="uYs_JKX0Gq04gsp21qCu-41" value="id : Int?" style="text;strokeColor=none;fillColor=none;align=left;verticalAlign=top;spacingLeft=4;spacingRight=4;overflow=hidden;rotatable=0;points=[[0,0.5],[1,0.5]];portConstraint=eastwest;whiteSpace=wrap;html=1;" parent="2" vertex="1">
          <mxGeometry y="26" width="250" height="26" as="geometry" />
        </mxCell>
        <mxCell id="uYs_JKX0Gq04gsp21qCu-38" value="key : Int?" style="text;strokeColor=none;fillColor=none;align=left;verticalAlign=top;spacingLeft=4;spacingRight=4;overflow=hidden;rotatable=0;points=[[0,0.5],[1,0.5]];portConstraint=eastwest;whiteSpace=wrap;html=1;" parent="2" vertex="1">
          <mxGeometry y="52" width="250" height="26" as="geometry" />
        </mxCell>
        <mxCell id="uYs_JKX0Gq04gsp21qCu-42" value="connected : Boolean" style="text;strokeColor=none;fillColor=none;align=left;verticalAlign=top;spacingLeft=4;spacingRight=4;overflow=hidden;rotatable=0;points=[[0,0.5],[1,0.5]];portConstraint=eastwest;whiteSpace=wrap;html=1;" parent="2" vertex="1">
          <mxGeometry y="78" width="250" height="26" as="geometry" />
        </mxCell>
        <mxCell id="uYs_JKX0Gq04gsp21qCu-40" value="nbJoueur : Int" style="text;strokeColor=none;fillColor=none;align=left;verticalAlign=top;spacingLeft=4;spacingRight=4;overflow=hidden;rotatable=0;points=[[0,0.5],[1,0.5]];portConstraint=eastwest;whiteSpace=wrap;html=1;" parent="2" vertex="1">
          <mxGeometry y="104" width="250" height="26" as="geometry" />
        </mxCell>
        <mxCell id="4" value="" style="line;strokeWidth=1;fillColor=none;align=left;verticalAlign=middle;spacingTop=-1;spacingLeft=3;spacingRight=3;rotatable=0;labelPosition=right;points=[];portConstraint=eastwest;strokeColor=inherit;" parent="2" vertex="1">
          <mxGeometry y="130" width="250" height="8" as="geometry" />
        </mxCell>
        <mxCell id="uYs_JKX0Gq04gsp21qCu-44" value="CreateGame(nbJoueur : Int,numJoueur:Int)" style="text;strokeColor=none;fillColor=none;align=left;verticalAlign=top;spacingLeft=4;spacingRight=4;overflow=hidden;rotatable=0;points=[[0,0.5],[1,0.5]];portConstraint=eastwest;whiteSpace=wrap;html=1;" parent="2" vertex="1">
          <mxGeometry y="138" width="250" height="26" as="geometry" />
        </mxCell>
        <mxCell id="5" value="JoinGame(id:Int, key:Int)" style="text;strokeColor=none;fillColor=none;align=left;verticalAlign=top;spacingLeft=4;spacingRight=4;overflow=hidden;rotatable=0;points=[[0,0.5],[1,0.5]];portConstraint=eastwest;whiteSpace=wrap;html=1;" parent="2" vertex="1">
          <mxGeometry y="164" width="250" height="26" as="geometry" />
        </mxCell>
        <mxCell id="uYs_JKX0Gq04gsp21qCu-46" value="CreateGame(nbJoueur : Int,numJoueur:Int)" style="text;strokeColor=none;fillColor=none;align=left;verticalAlign=top;spacingLeft=4;spacingRight=4;overflow=hidden;rotatable=0;points=[[0,0.5],[1,0.5]];portConstraint=eastwest;whiteSpace=wrap;html=1;" parent="2" vertex="1">
          <mxGeometry y="190" width="250" height="26" as="geometry" />
        </mxCell>
        <mxCell id="uYs_JKX0Gq04gsp21qCu-45" value="StartGame()" style="text;strokeColor=none;fillColor=none;align=left;verticalAlign=top;spacingLeft=4;spacingRight=4;overflow=hidden;rotatable=0;points=[[0,0.5],[1,0.5]];portConstraint=eastwest;whiteSpace=wrap;html=1;" parent="2" vertex="1">
          <mxGeometry y="216" width="250" height="26" as="geometry" />
        </mxCell>
        <mxCell id="3" value="game : Game" style="text;strokeColor=none;fillColor=none;align=left;verticalAlign=top;spacingLeft=4;spacingRight=4;overflow=hidden;rotatable=0;points=[[0,0.5],[1,0.5]];portConstraint=eastwest;whiteSpace=wrap;html=1;" parent="tUZ9aXgOReJQeI9EX30n-59" vertex="1">
          <mxGeometry x="140" y="322" width="250" height="26" as="geometry" />
        </mxCell>
        <mxCell id="uYs_JKX0Gq04gsp21qCu-48" value="1" style="endArrow=open;html=1;endSize=12;startArrow=diamondThin;startSize=14;startFill=1;edgeStyle=orthogonalEdgeStyle;align=left;verticalAlign=bottom;rounded=0;" parent="tUZ9aXgOReJQeI9EX30n-59" source="2" target="tUZ9aXgOReJQeI9EX30n-9" edge="1">
          <mxGeometry x="-0.9913" y="17" relative="1" as="geometry">
            <mxPoint x="121" y="246" as="sourcePoint" />
            <mxPoint x="281" y="246" as="targetPoint" />
            <Array as="points">
              <mxPoint x="138" y="180" />
            </Array>
            <mxPoint as="offset" />
          </mxGeometry>
        </mxCell>
        <mxCell id="tUZ9aXgOReJQeI9EX30n-11" value="listPickominosEnJeu :MutableList&amp;lt;Pickomino&amp;gt;" style="text;strokeColor=none;fillColor=none;align=left;verticalAlign=top;spacingLeft=4;spacingRight=4;overflow=hidden;rotatable=0;points=[[0,0.5],[1,0.5]];portConstraint=eastwest;whiteSpace=wrap;html=1;" parent="tUZ9aXgOReJQeI9EX30n-59" vertex="1">
          <mxGeometry x="252" y="663" width="326" height="26" as="geometry" />
        </mxCell>
        <mxCell id="uYs_JKX0Gq04gsp21qCu-59" value="ListPickomino :MutableList&amp;lt;Pickomino&amp;gt;" style="text;strokeColor=none;fillColor=none;align=left;verticalAlign=top;spacingLeft=4;spacingRight=4;overflow=hidden;rotatable=0;points=[[0,0.5],[1,0.5]];portConstraint=eastwest;whiteSpace=wrap;html=1;" parent="tUZ9aXgOReJQeI9EX30n-59" vertex="1">
          <mxGeometry x="625" y="353" width="222" height="26" as="geometry" />
        </mxCell>
        <mxCell id="uYs_JKX0Gq04gsp21qCu-51" value="diceChosen :List&amp;lt;DICE&amp;gt;" style="text;strokeColor=none;fillColor=none;align=left;verticalAlign=top;spacingLeft=4;spacingRight=4;overflow=hidden;rotatable=0;points=[[0,0.5],[1,0.5]];portConstraint=eastwest;whiteSpace=wrap;html=1;" parent="tUZ9aXgOReJQeI9EX30n-59" vertex="1">
          <mxGeometry x="-56" y="440" width="144" height="26" as="geometry" />
        </mxCell>
        <mxCell id="uYs_JKX0Gq04gsp21qCu-49" value="diceKept :List&amp;lt;DICE&amp;gt;" style="text;strokeColor=none;fillColor=none;align=left;verticalAlign=top;spacingLeft=4;spacingRight=4;overflow=hidden;rotatable=0;points=[[0,0.5],[1,0.5]];portConstraint=eastwest;whiteSpace=wrap;html=1;" parent="tUZ9aXgOReJQeI9EX30n-59" vertex="1">
          <mxGeometry x="-37" y="389" width="125" height="26" as="geometry" />
        </mxCell>
        <mxCell id="uYs_JKX0Gq04gsp21qCu-47" value="1" style="endArrow=open;html=1;endSize=12;startArrow=diamondThin;startSize=14;startFill=1;edgeStyle=orthogonalEdgeStyle;align=left;verticalAlign=bottom;rounded=0;" parent="1" source="2" target="cSXNjDyf7hBkQ2mtIfp5-5" edge="1">
          <mxGeometry x="-0.9246" y="28" relative="1" as="geometry">
            <mxPoint x="1643" y="576" as="sourcePoint" />
            <mxPoint x="1803" y="576" as="targetPoint" />
            <Array as="points">
              <mxPoint x="1609" y="401" />
              <mxPoint x="1609" y="401" />
            </Array>
            <mxPoint as="offset" />
          </mxGeometry>
        </mxCell>
        <mxCell id="uYs_JKX0Gq04gsp21qCu-62" value="contient" style="endArrow=open;html=1;endSize=12;startArrow=diamondThin;startSize=14;startFill=0;edgeStyle=orthogonalEdgeStyle;rounded=0;" parent="1" source="tUZ9aXgOReJQeI9EX30n-9" target="cSXNjDyf7hBkQ2mtIfp5-22" edge="1">
          <mxGeometry relative="1" as="geometry">
            <mxPoint x="1585" y="848" as="sourcePoint" />
            <mxPoint x="1745" y="848" as="targetPoint" />
            <Array as="points">
              <mxPoint x="1025" y="706" />
              <mxPoint x="1025" y="706" />
            </Array>
          </mxGeometry>
        </mxCell>
        <mxCell id="uYs_JKX0Gq04gsp21qCu-63" value="0..n" style="edgeLabel;resizable=0;html=1;align=left;verticalAlign=top;" parent="uYs_JKX0Gq04gsp21qCu-62" connectable="0" vertex="1">
          <mxGeometry x="-1" relative="1" as="geometry" />
        </mxCell>
        <mxCell id="uYs_JKX0Gq04gsp21qCu-64" value="1" style="edgeLabel;resizable=0;html=1;align=right;verticalAlign=top;" parent="uYs_JKX0Gq04gsp21qCu-62" connectable="0" vertex="1">
          <mxGeometry x="1" relative="1" as="geometry" />
        </mxCell>
        <mxCell id="uYs_JKX0Gq04gsp21qCu-65" value="contient" style="endArrow=open;html=1;endSize=12;startArrow=diamondThin;startSize=14;startFill=0;edgeStyle=orthogonalEdgeStyle;rounded=0;" parent="1" source="tUZ9aXgOReJQeI9EX30n-9" target="cSXNjDyf7hBkQ2mtIfp5-22" edge="1">
          <mxGeometry relative="1" as="geometry">
            <mxPoint x="1788" y="871" as="sourcePoint" />
            <mxPoint x="488" y="723" as="targetPoint" />
            <Array as="points">
              <mxPoint x="1574" y="742" />
              <mxPoint x="1574" y="742" />
            </Array>
          </mxGeometry>
        </mxCell>
        <mxCell id="uYs_JKX0Gq04gsp21qCu-66" value="0..n" style="edgeLabel;resizable=0;html=1;align=left;verticalAlign=top;" parent="uYs_JKX0Gq04gsp21qCu-65" connectable="0" vertex="1">
          <mxGeometry x="-1" relative="1" as="geometry" />
        </mxCell>
        <mxCell id="uYs_JKX0Gq04gsp21qCu-67" value="1" style="edgeLabel;resizable=0;html=1;align=right;verticalAlign=top;" parent="uYs_JKX0Gq04gsp21qCu-65" connectable="0" vertex="1">
          <mxGeometry x="1" relative="1" as="geometry" />
        </mxCell>
        <mxCell id="uYs_JKX0Gq04gsp21qCu-43" value="&amp;nbsp;connect : Connector?" style="text;strokeColor=none;fillColor=none;align=left;verticalAlign=top;spacingLeft=4;spacingRight=4;overflow=hidden;rotatable=0;points=[[0,0.5],[1,0.5]];portConstraint=eastwest;whiteSpace=wrap;html=1;" parent="1" vertex="1">
          <mxGeometry x="1534" y="409" width="129" height="26" as="geometry" />
        </mxCell>
        <mxCell id="uYs_JKX0Gq04gsp21qCu-75" value="View" style="swimlane;whiteSpace=wrap;html=1;fillColor=#fff2cc;strokeColor=#d6b656;" parent="1" vertex="1">
          <mxGeometry x="2825" y="125" width="1100" height="904" as="geometry" />
        </mxCell>
        <mxCell id="uYs_JKX0Gq04gsp21qCu-80" value="Classname" style="swimlane;fontStyle=1;align=center;verticalAlign=top;childLayout=stackLayout;horizontal=1;startSize=26;horizontalStack=0;resizeParent=1;resizeParentMax=0;resizeLast=0;collapsible=1;marginBottom=0;whiteSpace=wrap;html=1;" parent="uYs_JKX0Gq04gsp21qCu-75" vertex="1">
          <mxGeometry x="91" y="53" width="160" height="86" as="geometry" />
        </mxCell>
        <mxCell id="uYs_JKX0Gq04gsp21qCu-81" value="+ field: type" style="text;strokeColor=none;fillColor=none;align=left;verticalAlign=top;spacingLeft=4;spacingRight=4;overflow=hidden;rotatable=0;points=[[0,0.5],[1,0.5]];portConstraint=eastwest;whiteSpace=wrap;html=1;" parent="uYs_JKX0Gq04gsp21qCu-80" vertex="1">
          <mxGeometry y="26" width="160" height="26" as="geometry" />
        </mxCell>
        <mxCell id="uYs_JKX0Gq04gsp21qCu-82" value="" style="line;strokeWidth=1;fillColor=none;align=left;verticalAlign=middle;spacingTop=-1;spacingLeft=3;spacingRight=3;rotatable=0;labelPosition=right;points=[];portConstraint=eastwest;strokeColor=inherit;" parent="uYs_JKX0Gq04gsp21qCu-80" vertex="1">
          <mxGeometry y="52" width="160" height="8" as="geometry" />
        </mxCell>
        <mxCell id="uYs_JKX0Gq04gsp21qCu-83" value="+ method(type): type" style="text;strokeColor=none;fillColor=none;align=left;verticalAlign=top;spacingLeft=4;spacingRight=4;overflow=hidden;rotatable=0;points=[[0,0.5],[1,0.5]];portConstraint=eastwest;whiteSpace=wrap;html=1;" parent="uYs_JKX0Gq04gsp21qCu-80" vertex="1">
          <mxGeometry y="60" width="160" height="26" as="geometry" />
        </mxCell>
        <mxCell id="uYs_JKX0Gq04gsp21qCu-76" value="&amp;lt;&amp;lt;Abstrat&amp;gt;&amp;gt;&lt;br&gt;View" style="swimlane;fontStyle=1;align=center;verticalAlign=top;childLayout=stackLayout;horizontal=1;startSize=39;horizontalStack=0;resizeParent=1;resizeParentMax=0;resizeLast=0;collapsible=1;marginBottom=0;whiteSpace=wrap;html=1;" parent="uYs_JKX0Gq04gsp21qCu-75" vertex="1">
          <mxGeometry x="470" y="35" width="160" height="99" as="geometry" />
        </mxCell>
        <mxCell id="uYs_JKX0Gq04gsp21qCu-77" value="+ field: type" style="text;strokeColor=none;fillColor=none;align=left;verticalAlign=top;spacingLeft=4;spacingRight=4;overflow=hidden;rotatable=0;points=[[0,0.5],[1,0.5]];portConstraint=eastwest;whiteSpace=wrap;html=1;" parent="uYs_JKX0Gq04gsp21qCu-76" vertex="1">
          <mxGeometry y="39" width="160" height="26" as="geometry" />
        </mxCell>
        <mxCell id="uYs_JKX0Gq04gsp21qCu-78" value="" style="line;strokeWidth=1;fillColor=none;align=left;verticalAlign=middle;spacingTop=-1;spacingLeft=3;spacingRight=3;rotatable=0;labelPosition=right;points=[];portConstraint=eastwest;strokeColor=inherit;" parent="uYs_JKX0Gq04gsp21qCu-76" vertex="1">
          <mxGeometry y="65" width="160" height="8" as="geometry" />
        </mxCell>
        <mxCell id="uYs_JKX0Gq04gsp21qCu-79" value="+ method(type): type" style="text;strokeColor=none;fillColor=none;align=left;verticalAlign=top;spacingLeft=4;spacingRight=4;overflow=hidden;rotatable=0;points=[[0,0.5],[1,0.5]];portConstraint=eastwest;whiteSpace=wrap;html=1;" parent="uYs_JKX0Gq04gsp21qCu-76" vertex="1">
          <mxGeometry y="73" width="160" height="26" as="geometry" />
        </mxCell>
        <mxCell id="uYs_JKX0Gq04gsp21qCu-84" value="MainView" style="swimlane;fontStyle=1;align=center;verticalAlign=top;childLayout=stackLayout;horizontal=1;startSize=26;horizontalStack=0;resizeParent=1;resizeParentMax=0;resizeLast=0;collapsible=1;marginBottom=0;whiteSpace=wrap;html=1;" parent="uYs_JKX0Gq04gsp21qCu-75" vertex="1">
          <mxGeometry x="470" y="185" width="160" height="86" as="geometry" />
        </mxCell>
        <mxCell id="uYs_JKX0Gq04gsp21qCu-85" value="+ field: type" style="text;strokeColor=none;fillColor=none;align=left;verticalAlign=top;spacingLeft=4;spacingRight=4;overflow=hidden;rotatable=0;points=[[0,0.5],[1,0.5]];portConstraint=eastwest;whiteSpace=wrap;html=1;" parent="uYs_JKX0Gq04gsp21qCu-84" vertex="1">
          <mxGeometry y="26" width="160" height="26" as="geometry" />
        </mxCell>
        <mxCell id="uYs_JKX0Gq04gsp21qCu-86" value="" style="line;strokeWidth=1;fillColor=none;align=left;verticalAlign=middle;spacingTop=-1;spacingLeft=3;spacingRight=3;rotatable=0;labelPosition=right;points=[];portConstraint=eastwest;strokeColor=inherit;" parent="uYs_JKX0Gq04gsp21qCu-84" vertex="1">
          <mxGeometry y="52" width="160" height="8" as="geometry" />
        </mxCell>
        <mxCell id="uYs_JKX0Gq04gsp21qCu-87" value="+ method(type): type" style="text;strokeColor=none;fillColor=none;align=left;verticalAlign=top;spacingLeft=4;spacingRight=4;overflow=hidden;rotatable=0;points=[[0,0.5],[1,0.5]];portConstraint=eastwest;whiteSpace=wrap;html=1;" parent="uYs_JKX0Gq04gsp21qCu-84" vertex="1">
          <mxGeometry y="60" width="160" height="26" as="geometry" />
        </mxCell>
        <mxCell id="uYs_JKX0Gq04gsp21qCu-199" value="1" style="endArrow=open;html=1;endSize=12;startArrow=diamondThin;startSize=14;startFill=1;edgeStyle=orthogonalEdgeStyle;align=left;verticalAlign=bottom;rounded=0;" parent="uYs_JKX0Gq04gsp21qCu-75" source="uYs_JKX0Gq04gsp21qCu-84" target="uYs_JKX0Gq04gsp21qCu-124" edge="1">
          <mxGeometry x="-1" y="3" relative="1" as="geometry">
            <mxPoint x="480" y="238" as="sourcePoint" />
            <mxPoint x="360" y="379" as="targetPoint" />
            <Array as="points">
              <mxPoint x="887" y="238" />
            </Array>
          </mxGeometry>
        </mxCell>
        <mxCell id="uYs_JKX0Gq04gsp21qCu-200" value="Extends" style="endArrow=block;endSize=16;endFill=0;html=1;rounded=0;" parent="uYs_JKX0Gq04gsp21qCu-75" source="uYs_JKX0Gq04gsp21qCu-84" target="uYs_JKX0Gq04gsp21qCu-76" edge="1">
          <mxGeometry width="160" relative="1" as="geometry">
            <mxPoint x="679" y="453" as="sourcePoint" />
            <mxPoint x="607" y="404" as="targetPoint" />
          </mxGeometry>
        </mxCell>
        <mxCell id="uYs_JKX0Gq04gsp21qCu-242" value="Home" style="swimlane;whiteSpace=wrap;html=1;" parent="uYs_JKX0Gq04gsp21qCu-75" vertex="1">
          <mxGeometry x="26" y="293" width="640" height="591" as="geometry">
            <mxRectangle x="17" y="281" width="137" height="26" as="alternateBounds" />
          </mxGeometry>
        </mxCell>
        <mxCell id="uYs_JKX0Gq04gsp21qCu-92" value="HomeView" style="swimlane;fontStyle=1;align=center;verticalAlign=top;childLayout=stackLayout;horizontal=1;startSize=26;horizontalStack=0;resizeParent=1;resizeParentMax=0;resizeLast=0;collapsible=1;marginBottom=0;whiteSpace=wrap;html=1;" parent="uYs_JKX0Gq04gsp21qCu-242" vertex="1">
          <mxGeometry x="259.5" y="60" width="160" height="86" as="geometry" />
        </mxCell>
        <mxCell id="uYs_JKX0Gq04gsp21qCu-93" value="+ field: type" style="text;strokeColor=none;fillColor=none;align=left;verticalAlign=top;spacingLeft=4;spacingRight=4;overflow=hidden;rotatable=0;points=[[0,0.5],[1,0.5]];portConstraint=eastwest;whiteSpace=wrap;html=1;" parent="uYs_JKX0Gq04gsp21qCu-92" vertex="1">
          <mxGeometry y="26" width="160" height="26" as="geometry" />
        </mxCell>
        <mxCell id="uYs_JKX0Gq04gsp21qCu-94" value="" style="line;strokeWidth=1;fillColor=none;align=left;verticalAlign=middle;spacingTop=-1;spacingLeft=3;spacingRight=3;rotatable=0;labelPosition=right;points=[];portConstraint=eastwest;strokeColor=inherit;" parent="uYs_JKX0Gq04gsp21qCu-92" vertex="1">
          <mxGeometry y="52" width="160" height="8" as="geometry" />
        </mxCell>
        <mxCell id="uYs_JKX0Gq04gsp21qCu-95" value="+ method(type): type" style="text;strokeColor=none;fillColor=none;align=left;verticalAlign=top;spacingLeft=4;spacingRight=4;overflow=hidden;rotatable=0;points=[[0,0.5],[1,0.5]];portConstraint=eastwest;whiteSpace=wrap;html=1;" parent="uYs_JKX0Gq04gsp21qCu-92" vertex="1">
          <mxGeometry y="60" width="160" height="26" as="geometry" />
        </mxCell>
        <mxCell id="uYs_JKX0Gq04gsp21qCu-201" value="Center" style="swimlane;whiteSpace=wrap;html=1;" parent="uYs_JKX0Gq04gsp21qCu-242" vertex="1">
          <mxGeometry x="22" y="192" width="609" height="373" as="geometry" />
        </mxCell>
        <mxCell id="uYs_JKX0Gq04gsp21qCu-88" value="HomeCenter" style="swimlane;fontStyle=1;align=center;verticalAlign=top;childLayout=stackLayout;horizontal=1;startSize=26;horizontalStack=0;resizeParent=1;resizeParentMax=0;resizeLast=0;collapsible=1;marginBottom=0;whiteSpace=wrap;html=1;" parent="uYs_JKX0Gq04gsp21qCu-201" vertex="1">
          <mxGeometry x="230" y="131" width="160" height="86" as="geometry" />
        </mxCell>
        <mxCell id="uYs_JKX0Gq04gsp21qCu-89" value="+ field: type" style="text;strokeColor=none;fillColor=none;align=left;verticalAlign=top;spacingLeft=4;spacingRight=4;overflow=hidden;rotatable=0;points=[[0,0.5],[1,0.5]];portConstraint=eastwest;whiteSpace=wrap;html=1;" parent="uYs_JKX0Gq04gsp21qCu-88" vertex="1">
          <mxGeometry y="26" width="160" height="26" as="geometry" />
        </mxCell>
        <mxCell id="uYs_JKX0Gq04gsp21qCu-90" value="" style="line;strokeWidth=1;fillColor=none;align=left;verticalAlign=middle;spacingTop=-1;spacingLeft=3;spacingRight=3;rotatable=0;labelPosition=right;points=[];portConstraint=eastwest;strokeColor=inherit;" parent="uYs_JKX0Gq04gsp21qCu-88" vertex="1">
          <mxGeometry y="52" width="160" height="8" as="geometry" />
        </mxCell>
        <mxCell id="uYs_JKX0Gq04gsp21qCu-91" value="+ method(type): type" style="text;strokeColor=none;fillColor=none;align=left;verticalAlign=top;spacingLeft=4;spacingRight=4;overflow=hidden;rotatable=0;points=[[0,0.5],[1,0.5]];portConstraint=eastwest;whiteSpace=wrap;html=1;" parent="uYs_JKX0Gq04gsp21qCu-88" vertex="1">
          <mxGeometry y="60" width="160" height="26" as="geometry" />
        </mxCell>
        <mxCell id="uYs_JKX0Gq04gsp21qCu-100" value="CreateOrJoin" style="swimlane;fontStyle=1;align=center;verticalAlign=top;childLayout=stackLayout;horizontal=1;startSize=26;horizontalStack=0;resizeParent=1;resizeParentMax=0;resizeLast=0;collapsible=1;marginBottom=0;whiteSpace=wrap;html=1;" parent="uYs_JKX0Gq04gsp21qCu-201" vertex="1">
          <mxGeometry x="37" y="34" width="160" height="86" as="geometry" />
        </mxCell>
        <mxCell id="uYs_JKX0Gq04gsp21qCu-101" value="+ field: type" style="text;strokeColor=none;fillColor=none;align=left;verticalAlign=top;spacingLeft=4;spacingRight=4;overflow=hidden;rotatable=0;points=[[0,0.5],[1,0.5]];portConstraint=eastwest;whiteSpace=wrap;html=1;" parent="uYs_JKX0Gq04gsp21qCu-100" vertex="1">
          <mxGeometry y="26" width="160" height="26" as="geometry" />
        </mxCell>
        <mxCell id="uYs_JKX0Gq04gsp21qCu-102" value="" style="line;strokeWidth=1;fillColor=none;align=left;verticalAlign=middle;spacingTop=-1;spacingLeft=3;spacingRight=3;rotatable=0;labelPosition=right;points=[];portConstraint=eastwest;strokeColor=inherit;" parent="uYs_JKX0Gq04gsp21qCu-100" vertex="1">
          <mxGeometry y="52" width="160" height="8" as="geometry" />
        </mxCell>
        <mxCell id="uYs_JKX0Gq04gsp21qCu-103" value="+ method(type): type" style="text;strokeColor=none;fillColor=none;align=left;verticalAlign=top;spacingLeft=4;spacingRight=4;overflow=hidden;rotatable=0;points=[[0,0.5],[1,0.5]];portConstraint=eastwest;whiteSpace=wrap;html=1;" parent="uYs_JKX0Gq04gsp21qCu-100" vertex="1">
          <mxGeometry y="60" width="160" height="26" as="geometry" />
        </mxCell>
        <mxCell id="uYs_JKX0Gq04gsp21qCu-96" value="CreateServer" style="swimlane;fontStyle=1;align=center;verticalAlign=top;childLayout=stackLayout;horizontal=1;startSize=26;horizontalStack=0;resizeParent=1;resizeParentMax=0;resizeLast=0;collapsible=1;marginBottom=0;whiteSpace=wrap;html=1;" parent="uYs_JKX0Gq04gsp21qCu-201" vertex="1">
          <mxGeometry x="426" y="34" width="160" height="86" as="geometry" />
        </mxCell>
        <mxCell id="uYs_JKX0Gq04gsp21qCu-97" value="+ field: type" style="text;strokeColor=none;fillColor=none;align=left;verticalAlign=top;spacingLeft=4;spacingRight=4;overflow=hidden;rotatable=0;points=[[0,0.5],[1,0.5]];portConstraint=eastwest;whiteSpace=wrap;html=1;" parent="uYs_JKX0Gq04gsp21qCu-96" vertex="1">
          <mxGeometry y="26" width="160" height="26" as="geometry" />
        </mxCell>
        <mxCell id="uYs_JKX0Gq04gsp21qCu-98" value="" style="line;strokeWidth=1;fillColor=none;align=left;verticalAlign=middle;spacingTop=-1;spacingLeft=3;spacingRight=3;rotatable=0;labelPosition=right;points=[];portConstraint=eastwest;strokeColor=inherit;" parent="uYs_JKX0Gq04gsp21qCu-96" vertex="1">
          <mxGeometry y="52" width="160" height="8" as="geometry" />
        </mxCell>
        <mxCell id="uYs_JKX0Gq04gsp21qCu-99" value="+ method(type): type" style="text;strokeColor=none;fillColor=none;align=left;verticalAlign=top;spacingLeft=4;spacingRight=4;overflow=hidden;rotatable=0;points=[[0,0.5],[1,0.5]];portConstraint=eastwest;whiteSpace=wrap;html=1;" parent="uYs_JKX0Gq04gsp21qCu-96" vertex="1">
          <mxGeometry y="60" width="160" height="26" as="geometry" />
        </mxCell>
        <mxCell id="uYs_JKX0Gq04gsp21qCu-104" value="Setting" style="swimlane;fontStyle=1;align=center;verticalAlign=top;childLayout=stackLayout;horizontal=1;startSize=26;horizontalStack=0;resizeParent=1;resizeParentMax=0;resizeLast=0;collapsible=1;marginBottom=0;whiteSpace=wrap;html=1;" parent="uYs_JKX0Gq04gsp21qCu-201" vertex="1">
          <mxGeometry x="426" y="266" width="160" height="86" as="geometry" />
        </mxCell>
        <mxCell id="uYs_JKX0Gq04gsp21qCu-105" value="+ field: type" style="text;strokeColor=none;fillColor=none;align=left;verticalAlign=top;spacingLeft=4;spacingRight=4;overflow=hidden;rotatable=0;points=[[0,0.5],[1,0.5]];portConstraint=eastwest;whiteSpace=wrap;html=1;" parent="uYs_JKX0Gq04gsp21qCu-104" vertex="1">
          <mxGeometry y="26" width="160" height="26" as="geometry" />
        </mxCell>
        <mxCell id="uYs_JKX0Gq04gsp21qCu-106" value="" style="line;strokeWidth=1;fillColor=none;align=left;verticalAlign=middle;spacingTop=-1;spacingLeft=3;spacingRight=3;rotatable=0;labelPosition=right;points=[];portConstraint=eastwest;strokeColor=inherit;" parent="uYs_JKX0Gq04gsp21qCu-104" vertex="1">
          <mxGeometry y="52" width="160" height="8" as="geometry" />
        </mxCell>
        <mxCell id="uYs_JKX0Gq04gsp21qCu-107" value="+ method(type): type" style="text;strokeColor=none;fillColor=none;align=left;verticalAlign=top;spacingLeft=4;spacingRight=4;overflow=hidden;rotatable=0;points=[[0,0.5],[1,0.5]];portConstraint=eastwest;whiteSpace=wrap;html=1;" parent="uYs_JKX0Gq04gsp21qCu-104" vertex="1">
          <mxGeometry y="60" width="160" height="26" as="geometry" />
        </mxCell>
        <mxCell id="uYs_JKX0Gq04gsp21qCu-108" value="JoinServeur" style="swimlane;fontStyle=1;align=center;verticalAlign=top;childLayout=stackLayout;horizontal=1;startSize=26;horizontalStack=0;resizeParent=1;resizeParentMax=0;resizeLast=0;collapsible=1;marginBottom=0;whiteSpace=wrap;html=1;" parent="uYs_JKX0Gq04gsp21qCu-201" vertex="1">
          <mxGeometry x="33" y="153" width="160" height="86" as="geometry" />
        </mxCell>
        <mxCell id="uYs_JKX0Gq04gsp21qCu-109" value="+ field: type" style="text;strokeColor=none;fillColor=none;align=left;verticalAlign=top;spacingLeft=4;spacingRight=4;overflow=hidden;rotatable=0;points=[[0,0.5],[1,0.5]];portConstraint=eastwest;whiteSpace=wrap;html=1;" parent="uYs_JKX0Gq04gsp21qCu-108" vertex="1">
          <mxGeometry y="26" width="160" height="26" as="geometry" />
        </mxCell>
        <mxCell id="uYs_JKX0Gq04gsp21qCu-110" value="" style="line;strokeWidth=1;fillColor=none;align=left;verticalAlign=middle;spacingTop=-1;spacingLeft=3;spacingRight=3;rotatable=0;labelPosition=right;points=[];portConstraint=eastwest;strokeColor=inherit;" parent="uYs_JKX0Gq04gsp21qCu-108" vertex="1">
          <mxGeometry y="52" width="160" height="8" as="geometry" />
        </mxCell>
        <mxCell id="uYs_JKX0Gq04gsp21qCu-111" value="+ method(type): type" style="text;strokeColor=none;fillColor=none;align=left;verticalAlign=top;spacingLeft=4;spacingRight=4;overflow=hidden;rotatable=0;points=[[0,0.5],[1,0.5]];portConstraint=eastwest;whiteSpace=wrap;html=1;" parent="uYs_JKX0Gq04gsp21qCu-108" vertex="1">
          <mxGeometry y="60" width="160" height="26" as="geometry" />
        </mxCell>
        <mxCell id="uYs_JKX0Gq04gsp21qCu-112" value="Rules" style="swimlane;fontStyle=1;align=center;verticalAlign=top;childLayout=stackLayout;horizontal=1;startSize=26;horizontalStack=0;resizeParent=1;resizeParentMax=0;resizeLast=0;collapsible=1;marginBottom=0;whiteSpace=wrap;html=1;" parent="uYs_JKX0Gq04gsp21qCu-201" vertex="1">
          <mxGeometry x="426" y="160" width="160" height="86" as="geometry" />
        </mxCell>
        <mxCell id="uYs_JKX0Gq04gsp21qCu-113" value="+ field: type" style="text;strokeColor=none;fillColor=none;align=left;verticalAlign=top;spacingLeft=4;spacingRight=4;overflow=hidden;rotatable=0;points=[[0,0.5],[1,0.5]];portConstraint=eastwest;whiteSpace=wrap;html=1;" parent="uYs_JKX0Gq04gsp21qCu-112" vertex="1">
          <mxGeometry y="26" width="160" height="26" as="geometry" />
        </mxCell>
        <mxCell id="uYs_JKX0Gq04gsp21qCu-114" value="" style="line;strokeWidth=1;fillColor=none;align=left;verticalAlign=middle;spacingTop=-1;spacingLeft=3;spacingRight=3;rotatable=0;labelPosition=right;points=[];portConstraint=eastwest;strokeColor=inherit;" parent="uYs_JKX0Gq04gsp21qCu-112" vertex="1">
          <mxGeometry y="52" width="160" height="8" as="geometry" />
        </mxCell>
        <mxCell id="uYs_JKX0Gq04gsp21qCu-115" value="+ method(type): type" style="text;strokeColor=none;fillColor=none;align=left;verticalAlign=top;spacingLeft=4;spacingRight=4;overflow=hidden;rotatable=0;points=[[0,0.5],[1,0.5]];portConstraint=eastwest;whiteSpace=wrap;html=1;" parent="uYs_JKX0Gq04gsp21qCu-112" vertex="1">
          <mxGeometry y="60" width="160" height="26" as="geometry" />
        </mxCell>
        <mxCell id="uYs_JKX0Gq04gsp21qCu-116" value="Menu" style="swimlane;fontStyle=1;align=center;verticalAlign=top;childLayout=stackLayout;horizontal=1;startSize=26;horizontalStack=0;resizeParent=1;resizeParentMax=0;resizeLast=0;collapsible=1;marginBottom=0;whiteSpace=wrap;html=1;" parent="uYs_JKX0Gq04gsp21qCu-201" vertex="1">
          <mxGeometry x="232" y="268" width="160" height="86" as="geometry" />
        </mxCell>
        <mxCell id="uYs_JKX0Gq04gsp21qCu-117" value="+ field: type" style="text;strokeColor=none;fillColor=none;align=left;verticalAlign=top;spacingLeft=4;spacingRight=4;overflow=hidden;rotatable=0;points=[[0,0.5],[1,0.5]];portConstraint=eastwest;whiteSpace=wrap;html=1;" parent="uYs_JKX0Gq04gsp21qCu-116" vertex="1">
          <mxGeometry y="26" width="160" height="26" as="geometry" />
        </mxCell>
        <mxCell id="uYs_JKX0Gq04gsp21qCu-118" value="" style="line;strokeWidth=1;fillColor=none;align=left;verticalAlign=middle;spacingTop=-1;spacingLeft=3;spacingRight=3;rotatable=0;labelPosition=right;points=[];portConstraint=eastwest;strokeColor=inherit;" parent="uYs_JKX0Gq04gsp21qCu-116" vertex="1">
          <mxGeometry y="52" width="160" height="8" as="geometry" />
        </mxCell>
        <mxCell id="uYs_JKX0Gq04gsp21qCu-119" value="+ method(type): type" style="text;strokeColor=none;fillColor=none;align=left;verticalAlign=top;spacingLeft=4;spacingRight=4;overflow=hidden;rotatable=0;points=[[0,0.5],[1,0.5]];portConstraint=eastwest;whiteSpace=wrap;html=1;" parent="uYs_JKX0Gq04gsp21qCu-116" vertex="1">
          <mxGeometry y="60" width="160" height="26" as="geometry" />
        </mxCell>
        <mxCell id="uYs_JKX0Gq04gsp21qCu-120" value="SelecteNumberPlayer" style="swimlane;fontStyle=1;align=center;verticalAlign=top;childLayout=stackLayout;horizontal=1;startSize=26;horizontalStack=0;resizeParent=1;resizeParentMax=0;resizeLast=0;collapsible=1;marginBottom=0;whiteSpace=wrap;html=1;" parent="uYs_JKX0Gq04gsp21qCu-201" vertex="1">
          <mxGeometry x="37" y="268" width="160" height="86" as="geometry" />
        </mxCell>
        <mxCell id="uYs_JKX0Gq04gsp21qCu-121" value="+ field: type" style="text;strokeColor=none;fillColor=none;align=left;verticalAlign=top;spacingLeft=4;spacingRight=4;overflow=hidden;rotatable=0;points=[[0,0.5],[1,0.5]];portConstraint=eastwest;whiteSpace=wrap;html=1;" parent="uYs_JKX0Gq04gsp21qCu-120" vertex="1">
          <mxGeometry y="26" width="160" height="26" as="geometry" />
        </mxCell>
        <mxCell id="uYs_JKX0Gq04gsp21qCu-122" value="" style="line;strokeWidth=1;fillColor=none;align=left;verticalAlign=middle;spacingTop=-1;spacingLeft=3;spacingRight=3;rotatable=0;labelPosition=right;points=[];portConstraint=eastwest;strokeColor=inherit;" parent="uYs_JKX0Gq04gsp21qCu-120" vertex="1">
          <mxGeometry y="52" width="160" height="8" as="geometry" />
        </mxCell>
        <mxCell id="uYs_JKX0Gq04gsp21qCu-123" value="+ method(type): type" style="text;strokeColor=none;fillColor=none;align=left;verticalAlign=top;spacingLeft=4;spacingRight=4;overflow=hidden;rotatable=0;points=[[0,0.5],[1,0.5]];portConstraint=eastwest;whiteSpace=wrap;html=1;" parent="uYs_JKX0Gq04gsp21qCu-120" vertex="1">
          <mxGeometry y="60" width="160" height="26" as="geometry" />
        </mxCell>
        <mxCell id="uYs_JKX0Gq04gsp21qCu-130" value="" style="endArrow=block;endSize=16;endFill=0;html=1;rounded=0;" parent="uYs_JKX0Gq04gsp21qCu-201" source="uYs_JKX0Gq04gsp21qCu-108" target="uYs_JKX0Gq04gsp21qCu-88" edge="1">
          <mxGeometry width="160" relative="1" as="geometry">
            <mxPoint x="188" y="278" as="sourcePoint" />
            <mxPoint x="259" y="227" as="targetPoint" />
          </mxGeometry>
        </mxCell>
        <mxCell id="uYs_JKX0Gq04gsp21qCu-131" value="" style="endArrow=block;endSize=16;endFill=0;html=1;rounded=0;" parent="uYs_JKX0Gq04gsp21qCu-201" source="uYs_JKX0Gq04gsp21qCu-100" target="uYs_JKX0Gq04gsp21qCu-88" edge="1">
          <mxGeometry width="160" relative="1" as="geometry">
            <mxPoint x="188" y="278" as="sourcePoint" />
            <mxPoint x="259" y="227" as="targetPoint" />
          </mxGeometry>
        </mxCell>
        <mxCell id="uYs_JKX0Gq04gsp21qCu-132" value="" style="endArrow=block;endSize=16;endFill=0;html=1;rounded=0;" parent="uYs_JKX0Gq04gsp21qCu-201" source="uYs_JKX0Gq04gsp21qCu-96" target="uYs_JKX0Gq04gsp21qCu-88" edge="1">
          <mxGeometry width="160" relative="1" as="geometry">
            <mxPoint x="207" y="127" as="sourcePoint" />
            <mxPoint x="240" y="144" as="targetPoint" />
          </mxGeometry>
        </mxCell>
        <mxCell id="uYs_JKX0Gq04gsp21qCu-134" value="" style="endArrow=block;endSize=16;endFill=0;html=1;rounded=0;" parent="uYs_JKX0Gq04gsp21qCu-201" source="uYs_JKX0Gq04gsp21qCu-104" target="uYs_JKX0Gq04gsp21qCu-88" edge="1">
          <mxGeometry width="160" relative="1" as="geometry">
            <mxPoint x="188" y="278" as="sourcePoint" />
            <mxPoint x="259" y="227" as="targetPoint" />
          </mxGeometry>
        </mxCell>
        <mxCell id="uYs_JKX0Gq04gsp21qCu-135" value="" style="endArrow=block;endSize=16;endFill=0;html=1;rounded=0;" parent="uYs_JKX0Gq04gsp21qCu-201" source="uYs_JKX0Gq04gsp21qCu-116" target="uYs_JKX0Gq04gsp21qCu-88" edge="1">
          <mxGeometry x="0.0014" width="160" relative="1" as="geometry">
            <mxPoint x="198" y="288" as="sourcePoint" />
            <mxPoint x="269" y="237" as="targetPoint" />
            <mxPoint as="offset" />
          </mxGeometry>
        </mxCell>
        <mxCell id="uYs_JKX0Gq04gsp21qCu-136" value="" style="endArrow=block;endSize=16;endFill=0;html=1;rounded=0;" parent="uYs_JKX0Gq04gsp21qCu-201" source="uYs_JKX0Gq04gsp21qCu-112" target="uYs_JKX0Gq04gsp21qCu-88" edge="1">
          <mxGeometry width="160" relative="1" as="geometry">
            <mxPoint x="208" y="298" as="sourcePoint" />
            <mxPoint x="279" y="247" as="targetPoint" />
          </mxGeometry>
        </mxCell>
        <mxCell id="uYs_JKX0Gq04gsp21qCu-129" value="" style="endArrow=block;endSize=16;endFill=0;html=1;rounded=0;" parent="uYs_JKX0Gq04gsp21qCu-201" edge="1">
          <mxGeometry width="160" relative="1" as="geometry">
            <mxPoint x="178" y="268" as="sourcePoint" />
            <mxPoint x="249" y="217" as="targetPoint" />
          </mxGeometry>
        </mxCell>
        <mxCell id="uYs_JKX0Gq04gsp21qCu-137" value="1" style="endArrow=open;html=1;endSize=12;startArrow=diamondThin;startSize=14;startFill=1;edgeStyle=orthogonalEdgeStyle;align=left;verticalAlign=bottom;rounded=0;" parent="uYs_JKX0Gq04gsp21qCu-242" source="uYs_JKX0Gq04gsp21qCu-92" target="uYs_JKX0Gq04gsp21qCu-88" edge="1">
          <mxGeometry x="-1" y="3" relative="1" as="geometry">
            <mxPoint x="350.5" y="287" as="sourcePoint" />
            <mxPoint x="510.5" y="287" as="targetPoint" />
            <Array as="points">
              <mxPoint x="327.5" y="200" />
              <mxPoint x="327.5" y="200" />
            </Array>
          </mxGeometry>
        </mxCell>
        <mxCell id="uYs_JKX0Gq04gsp21qCu-198" value="1" style="endArrow=open;html=1;endSize=12;startArrow=diamondThin;startSize=14;startFill=1;edgeStyle=orthogonalEdgeStyle;align=left;verticalAlign=bottom;rounded=0;" parent="uYs_JKX0Gq04gsp21qCu-75" source="uYs_JKX0Gq04gsp21qCu-84" target="uYs_JKX0Gq04gsp21qCu-92" edge="1">
          <mxGeometry x="-1" y="3" relative="1" as="geometry">
            <mxPoint x="350" y="457" as="sourcePoint" />
            <mxPoint x="350" y="369" as="targetPoint" />
            <Array as="points">
              <mxPoint x="350" y="228" />
            </Array>
          </mxGeometry>
        </mxCell>
        <mxCell id="uYs_JKX0Gq04gsp21qCu-243" value="Game" style="swimlane;whiteSpace=wrap;html=1;startSize=23;" parent="uYs_JKX0Gq04gsp21qCu-75" vertex="1">
          <mxGeometry x="682" y="296" width="354" height="284" as="geometry" />
        </mxCell>
        <mxCell id="uYs_JKX0Gq04gsp21qCu-124" value="GameView" style="swimlane;fontStyle=1;align=center;verticalAlign=top;childLayout=stackLayout;horizontal=1;startSize=26;horizontalStack=0;resizeParent=1;resizeParentMax=0;resizeLast=0;collapsible=1;marginBottom=0;whiteSpace=wrap;html=1;" parent="uYs_JKX0Gq04gsp21qCu-243" vertex="1">
          <mxGeometry x="121" y="77" width="160" height="86" as="geometry" />
        </mxCell>
        <mxCell id="uYs_JKX0Gq04gsp21qCu-125" value="+ field: type" style="text;strokeColor=none;fillColor=none;align=left;verticalAlign=top;spacingLeft=4;spacingRight=4;overflow=hidden;rotatable=0;points=[[0,0.5],[1,0.5]];portConstraint=eastwest;whiteSpace=wrap;html=1;" parent="uYs_JKX0Gq04gsp21qCu-124" vertex="1">
          <mxGeometry y="26" width="160" height="26" as="geometry" />
        </mxCell>
        <mxCell id="uYs_JKX0Gq04gsp21qCu-126" value="" style="line;strokeWidth=1;fillColor=none;align=left;verticalAlign=middle;spacingTop=-1;spacingLeft=3;spacingRight=3;rotatable=0;labelPosition=right;points=[];portConstraint=eastwest;strokeColor=inherit;" parent="uYs_JKX0Gq04gsp21qCu-124" vertex="1">
          <mxGeometry y="52" width="160" height="8" as="geometry" />
        </mxCell>
        <mxCell id="uYs_JKX0Gq04gsp21qCu-127" value="+ method(type): type" style="text;strokeColor=none;fillColor=none;align=left;verticalAlign=top;spacingLeft=4;spacingRight=4;overflow=hidden;rotatable=0;points=[[0,0.5],[1,0.5]];portConstraint=eastwest;whiteSpace=wrap;html=1;" parent="uYs_JKX0Gq04gsp21qCu-124" vertex="1">
          <mxGeometry y="60" width="160" height="26" as="geometry" />
        </mxCell>
      </root>
    </mxGraphModel>
  </diagram>
</mxfile>
